<?xml version="1.0" encoding="utf-8"?>
<svg version="1.0" xmlns="http://www.w3.org/2000/svg" width="132.000000pt" height="55.000000pt" viewBox="0 0 132.000000 55.000000" preserveAspectRatio="xMidYMid meet">
  <g transform="translate(0.000000,55.000000) scale(0.100000,-0.100000)" fill="#000000" stroke="none">
    <path d="M54 457 c-2 -7 -3 -71 -2 -143 3 -121 4 -129 23 -129 19 0 20 8 23 103 l3 103 42 -80 c23 -45 46 -80 51 -78 4 1 28 41 53 87 l44 84 -2 -103 c-2 -105 7 -135 33 -113 10 8 12 44 10 147 l-3 136 -27 -3 c-21 -2 -35 -17 -68 -77 l-42 -73 -42 76 c-34 62 -46 76 -66 76 -14 0 -27 -6 -30 -13z" style="fill: rgb(255, 255, 255);"/>
    <path d="M435 439 c-135 -119 8 -326 165 -238 48 27 70 66 70 124 0 92 -54 145 -147 145 -44 0 -58 -5 -88 -31z m162 -40 c30 -29 37 -70 19 -112 -17 -42 -41 -57 -91 -57 -28 0 -44 7 -66 31 -87 93 45 224 138 138z" style="fill: rgb(255, 255, 255);"/>
    <path d="M706 461 c-9 -14 86 -269 103 -276 8 -3 21 -3 30 0 22 7 117 263 103 277 -17 17 -37 3 -49 -33 -32 -97 -73 -202 -73 -188 0 9 -18 63 -39 120 -36 97 -59 127 -75 100z" style="fill: rgb(255, 255, 255);"/>
    <path d="M987 464 c-10 -11 -8 -256 2 -273 5 -8 16 -11 25 -8 14 6 16 25 14 144 -3 115 -6 138 -18 141 -9 1 -19 0 -23 -4z" style="fill: rgb(255, 255, 255);"/>
    <path d="M1096 455 c-3 -9 -6 -70 -6 -135 0 -94 3 -120 15 -130 29 -24 36 3 33 141 -3 114 -5 134 -19 137 -9 2 -19 -4 -23 -13z" style="fill: rgb(255, 255, 255);"/>
    <path d="M1190 174 c0 -4 8 -13 18 -20 15 -11 12 -15 -30 -33 -86 -39 -164 -37 -256 6 -33 16 -49 13 -38 -6 4 -5 32 -19 64 -31 74 -28 186 -24 250 9 l43 22 -7 -26 c-4 -16 -2 -25 5 -25 28 0 25 65 -5 94 -15 16 -44 22 -44 10z" style="fill: rgb(255, 255, 255);"/>
  </g>
</svg>